<?xml version="1.0" encoding="UTF-8"?>
<!DOCTYPE svg PUBLIC "-//W3C//DTD SVG 1.1//EN" "http://www.w3.org/Graphics/SVG/1.1/DTD/svg11.dtd">
<!-- Creator: CorelDRAW X8 -->
<svg xmlns="http://www.w3.org/2000/svg" xml:space="preserve" width="210mm" height="297mm" version="1.1" style="shape-rendering:geometricPrecision; text-rendering:geometricPrecision; image-rendering:optimizeQuality; fill-rule:evenodd; clip-rule:evenodd"
viewBox="0 0 21000 29700"
 xmlns:xlink="http://www.w3.org/1999/xlink">
 <defs>
  <style type="text/css">
   <![CDATA[
    .str0 {stroke:white;stroke-width:61.01}
    .fil1 {fill:#0005DF}
    .fil0 {fill:#0005DF;fill-rule:nonzero}
   ]]>
  </style>
 </defs>
 <g id="Livello_x0020_1">
  <metadata id="CorelCorpID_0Corel-Layer"/>
  <g id="Layer_4">
  </g>
  <path class="fil0" d="M9403 14036l450 0 0 644c-71,22 -142,39 -214,50 -73,12 -157,18 -252,18 -201,0 -357,-60 -468,-179 -112,-120 -168,-286 -168,-502 0,-137 28,-258 83,-361 55,-104 135,-183 239,-238 104,-54 225,-82 365,-82 141,0 273,26 395,78l-60 136c-120,-51 -235,-76 -345,-76 -161,0 -287,48 -378,144 -90,95 -136,229 -136,399 0,179 44,314 131,407 87,92 216,138 385,138 91,0 181,-10 269,-32l0 -407 -296 0 0 -137z"/>
  <path id="1" class="fil0" d="M11227 14054c0,219 -59,386 -178,502 -118,115 -289,173 -512,173l-367 0 0 -1324 406 0c206,0 366,57 480,171 114,114 171,274 171,478zm-163 6c0,-173 -43,-303 -130,-390 -86,-88 -215,-132 -386,-132l-224 0 0 1058 188 0c183,0 321,-45 414,-136 92,-90 138,-224 138,-400z"/>
  <path id="2" class="fil0" d="M12105 14036l450 0 0 644c-70,22 -141,39 -214,50 -72,12 -156,18 -252,18 -200,0 -356,-60 -468,-179 -111,-120 -167,-286 -167,-502 0,-137 27,-258 82,-361 56,-104 135,-183 239,-238 104,-54 226,-82 365,-82 141,0 273,26 395,78l-60 136c-119,-51 -234,-76 -345,-76 -161,0 -287,48 -378,144 -90,95 -135,229 -135,399 0,179 43,314 131,407 87,92 215,138 384,138 92,0 181,-10 269,-32l0 -407 -296 0 0 -137z"/>
  <path id="3" class="fil0" d="M14412 14054c0,219 -60,386 -178,502 -119,115 -290,173 -513,173l-366 0 0 -1324 405 0c206,0 366,57 480,171 114,114 172,274 172,478zm-164 6c0,-173 -43,-303 -129,-390 -87,-88 -216,-132 -387,-132l-223 0 0 1058 187 0c184,0 321,-45 414,-136 92,-90 138,-224 138,-400z"/>
  <path id="4" class="fil0" d="M15103 14748c-146,0 -262,-45 -347,-134 -85,-90 -127,-214 -127,-373 0,-160 39,-287 118,-381 79,-95 185,-142 317,-142 125,0 223,41 296,123 72,82 108,190 108,324l0 95 -683 0c3,116 32,205 88,265 56,61 134,91 236,91 107,0 212,-22 317,-67l0 134c-53,23 -104,40 -151,50 -47,10 -105,15 -172,15zm-40 -904c-80,0 -144,26 -191,78 -47,52 -75,124 -84,216l519 0c0,-95 -21,-168 -63,-218 -43,-50 -103,-76 -181,-76z"/>
  <path id="5" class="fil0" d="M15905 14729l-377 -992 161 0 214 588c48,138 77,227 85,268l8 0c6,-32 27,-98 62,-198 36,-101 115,-320 238,-658l161 0 -376 992 -176 0z"/>
  <polygon id="6" class="fil0" points="16793,14729 16639,14729 16639,13405 17377,13405 17377,13542 16793,13542 16793,14026 17342,14026 17342,14163 16793,14163 "/>
  <path id="7" class="fil0" d="M17993 14748c-146,0 -262,-45 -347,-134 -85,-90 -127,-214 -127,-373 0,-160 39,-287 118,-381 79,-95 185,-142 317,-142 125,0 223,41 296,123 72,82 108,190 108,324l0 95 -683 0c3,116 32,205 88,265 56,61 134,91 236,91 107,0 212,-22 317,-67l0 134c-53,23 -104,40 -151,50 -47,10 -105,15 -172,15zm-40 -904c-80,0 -144,26 -191,78 -47,52 -75,124 -84,216l519 0c0,-95 -21,-168 -63,-218 -43,-50 -103,-76 -181,-76z"/>
  <path id="8" class="fil0" d="M19255 14459c0,92 -35,164 -103,214 -69,50 -166,75 -290,75 -132,0 -234,-21 -308,-63l0 -139c48,24 99,43 153,57 55,14 108,20 158,20 79,0 139,-12 182,-37 42,-25 63,-63 63,-115 0,-38 -17,-71 -50,-99 -34,-27 -99,-60 -196,-97 -93,-35 -158,-65 -197,-90 -39,-26 -68,-55 -87,-88 -19,-32 -29,-71 -29,-117 0,-81 33,-144 99,-191 66,-47 156,-71 271,-71 106,0 211,22 313,66l-54 122c-99,-41 -189,-62 -270,-62 -71,0 -125,12 -161,34 -37,22 -55,53 -55,92 0,27 7,49 21,68 13,19 35,37 65,54 30,16 89,41 174,73 118,43 197,86 239,130 41,43 62,98 62,164z"/>
  <path id="9" class="fil0" d="M19820 14623c27,0 52,-1 77,-5 25,-4 44,-8 59,-13l0 116c-17,7 -40,14 -72,19 -32,5 -61,8 -86,8 -192,0 -288,-101 -288,-304l0 -590 -142 0 0 -73 142 -62 64 -212 86 0 0 230 289 0 0 117 -289 0 0 584c0,60 15,105 43,138 29,31 68,47 117,47z"/>
  <polygon id="10" class="fil0" points="8820,16380 8820,15056 8974,15056 8974,16380 "/>
  <path id="11" class="fil0" d="M9635 16274c27,0 53,-2 77,-6 25,-4 44,-8 59,-12l0 115c-16,8 -40,14 -72,20 -32,5 -60,7 -86,7 -192,0 -287,-101 -287,-303l0 -591 -143 0 0 -72 143 -63 63 -211 87 0 0 230 288 0 0 116 -288 0 0 584c0,60 14,106 42,138 29,32 68,48 117,48z"/>
  <path id="12" class="fil0" d="M10580 16380l-30 -141 -8 0c-49,62 -98,104 -147,126 -50,22 -111,33 -185,33 -98,0 -175,-25 -231,-76 -56,-51 -84,-123 -84,-217 0,-200 160,-305 481,-315l168 -5 0 -62c0,-78 -17,-135 -50,-172 -34,-37 -87,-56 -161,-56 -83,0 -176,26 -280,76l-46 -115c48,-26 102,-47 160,-63 58,-15 117,-22 175,-22 119,0 206,26 263,79 58,52 86,136 86,252l0 678 -111 0zm-340 -106c94,0 167,-25 220,-77 54,-51 81,-123 81,-215l0 -90 -151 7c-119,4 -205,22 -258,55 -53,33 -79,84 -79,154 0,54 16,95 49,124 33,28 79,42 138,42z"/>
  <polygon id="13" class="fil0" points="11151,16380 11001,16380 11001,14970 11151,14970 "/>
  <path id="14" class="fil0" d="M11620 16380l-150 0 0 -992 150 0 0 992zm-162 -1262c0,-34 8,-59 25,-75 17,-16 38,-24 63,-24 24,0 45,8 63,24 17,16 26,41 26,75 0,34 -9,59 -26,76 -18,16 -39,25 -63,25 -25,0 -46,-9 -63,-25 -17,-17 -25,-42 -25,-76z"/>
  <path id="15" class="fil0" d="M12550 16380l-30 -141 -8 0c-49,62 -98,104 -147,126 -50,22 -111,33 -185,33 -98,0 -175,-25 -231,-76 -56,-51 -84,-123 -84,-217 0,-200 160,-305 481,-315l168 -5 0 -62c0,-78 -17,-135 -50,-172 -34,-37 -87,-56 -161,-56 -83,0 -176,26 -280,76l-46 -115c48,-26 102,-47 160,-63 58,-15 117,-22 175,-22 119,0 206,26 263,79 58,52 86,136 86,252l0 678 -111 0zm-340 -106c94,0 167,-25 220,-77 54,-51 81,-123 81,-215l0 -90 -151 7c-119,4 -205,22 -258,55 -53,33 -79,84 -79,154 0,54 16,95 49,124 33,28 79,42 138,42z"/>
  <path id="16" class="fil0" d="M14255 16380l-871 0 0 -130 349 -350c106,-108 176,-184 210,-230 34,-46 59,-91 76,-134 17,-44 26,-91 26,-141 0,-70 -22,-126 -65,-168 -43,-41 -102,-62 -178,-62 -55,0 -107,9 -156,27 -50,18 -105,51 -165,99l-80 -102c122,-102 255,-152 399,-152 124,0 222,32 293,96 70,63 106,149 106,256 0,84 -24,167 -71,250 -47,82 -135,185 -265,311l-290 284 0 7 682 0 0 139z"/>
  <path id="17" class="fil0" d="M15323 15716c0,229 -37,400 -109,513 -72,113 -182,169 -331,169 -143,0 -251,-57 -325,-173 -74,-116 -112,-285 -112,-509 0,-230 36,-401 108,-513 72,-112 182,-168 329,-168 144,0 253,59 328,175 74,117 112,286 112,506zm-724 0c0,192 22,333 68,421 45,88 117,132 216,132 100,0 173,-45 218,-134 45,-89 68,-229 68,-419 0,-190 -23,-330 -68,-418 -45,-89 -118,-133 -218,-133 -99,0 -171,44 -216,131 -46,87 -68,227 -68,420z"/>
  <path id="18" class="fil0" d="M16376 16380l-871 0 0 -130 349 -350c106,-108 176,-184 210,-230 34,-46 59,-91 76,-134 17,-44 26,-91 26,-141 0,-70 -22,-126 -64,-168 -43,-41 -103,-62 -179,-62 -55,0 -107,9 -156,27 -50,18 -104,51 -165,99l-79 -102c121,-102 254,-152 398,-152 125,0 222,32 293,96 71,63 106,149 106,256 0,84 -24,167 -71,250 -47,82 -135,185 -265,311l-290 284 0 7 682 0 0 139z"/>
  <path id="19" class="fil0" d="M17444 15716c0,229 -36,400 -108,513 -73,113 -183,169 -332,169 -142,0 -251,-57 -325,-173 -74,-116 -111,-285 -111,-509 0,-230 36,-401 108,-513 71,-112 181,-168 328,-168 144,0 253,59 328,175 74,117 112,286 112,506zm-724 0c0,192 22,333 68,421 45,88 117,132 216,132 101,0 173,-45 218,-134 45,-89 68,-229 68,-419 0,-190 -23,-330 -68,-418 -45,-89 -117,-133 -218,-133 -99,0 -171,44 -216,131 -46,87 -68,227 -68,420z"/>
  <g id="_2362938228400">
   <path class="fil1 str0" d="M1977 14862l1147 -659c268,-158 366,-500 207,-768 -158,-269 -500,-367 -769,-208l-1988 1135 1403 500z"/>
   <path class="fil1 str0" d="M2843 16571c195,0 391,-98 488,-281 159,-269 61,-622 -207,-769l-1989 -1159c-269,-159 -622,-61 -769,207 -159,269 -61,623 208,769l1988 1147c86,61 184,86 281,86z"/>
   <path class="fil1 str0" d="M4820 16571c97,0 195,-25 281,-74l1988 -1159 -1391 -512 -1171 671c-268,158 -366,500 -207,768 109,196 305,306 500,306z"/>
   <path class="fil1 str0" d="M6809 15411c195,0 390,-97 488,-280 159,-269 61,-623 -208,-769l-1988 -1147c-269,-159 -623,-61 -769,207 -159,269 -61,623 207,769l1989 1147c86,49 183,73 281,73z"/>
  </g>
 </g>
</svg>
