<?xml version="1.0" encoding="utf-8"?>
<!-- Generator: Adobe Illustrator 22.0.0, SVG Export Plug-In . SVG Version: 6.00 Build 0)  -->
<svg version="1.1" xmlns="http://www.w3.org/2000/svg" xmlns:xlink="http://www.w3.org/1999/xlink" x="0px" y="0px"
	 viewBox="0 0 746.9 134" style="enable-background:new 0 0 746.9 128;" xml:space="preserve">
<style type="text/css">
	.st0{fill:#FFFFFF;}
	.st1{font-family:"Roboto", sans-serif;}
	.st2{font-size:60px;}
	.st3{letter-spacing:5px;}
	.st8{letter-spacing:26px;}
	.st4{fill:#EA4335;}
	.st5{fill:#4285F4;}
	.st6{fill:#FBBC04;}
	.st7{fill:#0F9D58;}
</style>
<g id="Livello_3">
	<text transform="matrix(1 0 0 1 305.1976 59.1753)"><tspan x="0" y="0" class="st0 st1 st2 st3">GDG DevFest </tspan><tspan x="0" y="60" class="st0 st1 st2 st8">Together</tspan></text>
</g>
<g id="Livello_2">
	<g>
		<path class="st4" d="M62.9,64.2l41.8-24.1c9.8-5.7,13.2-18.3,7.5-28.1C106.6,2.1,94-1.2,84.2,4.5L11.9,46.2L62.9,64.2z"/>
		<path class="st5" d="M94.5,126.3c7.1,0,14-3.7,17.8-10.3c5.7-9.8,2.3-22.4-7.5-28.1L32.5,46.2c-9.8-5.7-22.4-2.3-28.1,7.5
			c-5.7,9.8-2.3,22.4,7.5,28.1l72.3,41.7C87.4,125.4,91,126.3,94.5,126.3"/>
		<path class="st6" d="M166.4,126.3c3.5,0,7-0.9,10.3-2.8l72.3-41.7l-50.4-18.4l-42.5,24.5c-9.8,5.7-13.2,18.3-7.5,28.1
			C152.3,122.6,159.2,126.3,166.4,126.3"/>
		<path class="st7" d="M238.6,84.6c7.1,0,14-3.7,17.8-10.3c5.7-9.8,2.3-22.4-7.5-28.1L176.6,4.4c-9.8-5.7-22.4-2.3-28.1,7.5
			c-5.7,9.8-2.3,22.4,7.5,28.1l72.3,41.7C231.6,83.7,235.1,84.6,238.6,84.6"/>
	</g>
</g>
</svg>
