<?xml version="1.0" encoding="utf-8"?>
<!-- Generator: Adobe Illustrator 22.0.0, SVG Export Plug-In . SVG Version: 6.00 Build 0)  -->
<svg version="1.1" xmlns="http://www.w3.org/2000/svg" xmlns:xlink="http://www.w3.org/1999/xlink" x="0px" y="0px"
	 viewBox="0 0 172.1 32" style="enable-background:new 0 0 172.1 32;" xml:space="preserve">
<style type="text/css">
	.st0{fill:#673AB7;}
	.st1{font-family:"Roboto", sans-serif;}
	.st2{font-size:15.2px;}
	.st8{letter-spacing:5.8px;}
	.st3{fill:#673AB7;stroke:#FFFFFF;stroke-width:0.5;stroke-miterlimit:10;}
</style>
<g id="Layer_4">
</g>
<g id="Livello_2">
	<text transform="matrix(1 0 0 1 70.791 15.0098)"><tspan x="0" y="0" class="st0 st1 st2">GDG DevParty </tspan><tspan x="0" y="13.5" class="st0 st1 st2 st8">Together</tspan></text>
	<g>
		<path class="st3" d="M16.2,16.1l9.4-5.4c2.2-1.3,3-4.1,1.7-6.3c-1.3-2.2-4.1-3-6.3-1.7L4.7,12L16.2,16.1z"/>
		<path class="st3" d="M23.3,30.1c1.6,0,3.2-0.8,4-2.3c1.3-2.2,0.5-5.1-1.7-6.3L9.3,12c-2.2-1.3-5.1-0.5-6.3,1.7
			c-1.3,2.2-0.5,5.1,1.7,6.3L21,29.4C21.7,29.9,22.5,30.1,23.3,30.1"/>
		<path class="st3" d="M39.5,30.1c0.8,0,1.6-0.2,2.3-0.6L58.1,20l-11.4-4.2l-9.6,5.5c-2.2,1.3-3,4.1-1.7,6.3
			C36.3,29.2,37.9,30.1,39.5,30.1"/>
		<path class="st3" d="M55.8,20.6c1.6,0,3.2-0.8,4-2.3c1.3-2.2,0.5-5.1-1.7-6.3L41.8,2.6c-2.2-1.3-5.1-0.5-6.3,1.7
			c-1.3,2.2-0.5,5.1,1.7,6.3L53.5,20C54.2,20.4,55,20.6,55.8,20.6"/>
	</g>
</g>
</svg>
