<?xml version="1.0" encoding="UTF-8" standalone="no"?>
<svg
   xmlns:dc="http://purl.org/dc/elements/1.1/"
   xmlns:cc="http://creativecommons.org/ns#"
   xmlns:rdf="http://www.w3.org/1999/02/22-rdf-syntax-ns#"
   xmlns:svg="http://www.w3.org/2000/svg"
   xmlns="http://www.w3.org/2000/svg"
   xmlns:sodipodi="http://sodipodi.sourceforge.net/DTD/sodipodi-0.dtd"
   xmlns:inkscape="http://www.inkscape.org/namespaces/inkscape"
   inkscape:version="1.0 (4035a4f, 2020-05-01)"
   height="136.64362"
   width="799.26404"
   sodipodi:docname="logo1.svg"
   id="svg853"
   xml:space="preserve"
   viewBox="0 0 799.26401 136.64362"
   y="0px"
   x="0px"
   version="1.1"><metadata
   id="metadata859"><rdf:RDF><cc:Work
       rdf:about=""><dc:format>image/svg+xml</dc:format><dc:type
         rdf:resource="http://purl.org/dc/dcmitype/StillImage" /><dc:title></dc:title></cc:Work></rdf:RDF></metadata><defs
   id="defs857" /><sodipodi:namedview
   inkscape:current-layer="Livello_3"
   inkscape:window-maximized="0"
   inkscape:window-y="23"
   inkscape:window-x="0"
   inkscape:cy="60.794132"
   inkscape:cx="377.41774"
   inkscape:zoom="0.89436337"
   fit-margin-bottom="0"
   fit-margin-right="0"
   fit-margin-left="0"
   fit-margin-top="0"
   inkscape:pagecheckerboard="false"
   showgrid="false"
   id="namedview855"
   inkscape:window-height="639"
   inkscape:window-width="1390"
   inkscape:pageshadow="2"
   inkscape:pageopacity="0"
   guidetolerance="10"
   gridtolerance="10"
   objecttolerance="10"
   borderopacity="1"
   bordercolor="#666666"
   pagecolor="#ffffff" />
<style
   id="style833"
   type="text/css">
	.st0{fill:#FFFFFF;}
	.st1{font-family:&quot;Roboto&quot;, sans-serif;}
	.st2{font-size:60px;}
	.st3{letter-spacing:1px;}
	.st8{letter-spacing:25px;}
	.st4{fill:#EA4335;}
	.st5{fill:#4285F4;}
	.st6{fill:#FBBC04;}
	.st7{fill:#0F9D58;}
</style>
<g
   transform="translate(-1.632927,1.6209283)"
   id="Livello_3">
	<g
   style="font-size:80px"
   id="text839"
   aria-label="GDG DevFest"><path
     id="path886"
     style="font-style:normal;font-variant:normal;font-weight:normal;font-stretch:normal;font-size:80px;font-family:'Product Sans';-inkscape-font-specification:'Product Sans';letter-spacing:1px;fill:#ffffff"
     d="m 369.43194,30.619072 q 0,12 -7.12,19.12 -8,8.48 -21.04,8.48 -12.48,0 -21.12,-8.64 -8.64,-8.64 -8.64,-21.28 0,-12.64 8.64,-21.2800003 8.64,-8.64 21.12,-8.64 6.32,0 11.92,2.23999996 5.6,2.24000004 9.2,6.32000004 l -5.28,5.2800003 q -2.64,-3.2000003 -6.88,-4.9600003 -4.16,-1.84 -8.96,-1.84 -9.36,0 -15.84,6.4800003 -6.4,6.56 -6.4,16.4 0,9.84 6.4,16.4 6.48,6.48 15.84,6.48 8.56,0 14.24,-4.8 5.68,-4.8 6.56,-13.2 h -20.8 v -6.88 h 27.76 q 0.4,2.24 0.4,4.32 z" /><path
     id="path888"
     style="font-style:normal;font-variant:normal;font-weight:normal;font-stretch:normal;font-size:80px;font-family:'Product Sans';-inkscape-font-specification:'Product Sans';letter-spacing:1px;fill:#ffffff"
     d="M 379.37444,56.939072 V -0.34092834 h 17.52 q 13.12,0 21.04,7.92000004 8,7.9200003 8,20.7200003 0,12.88 -8,20.8 -7.92,7.84 -21.04,7.84 z m 7.36,-50.2400003 V 49.899072 h 10.16 q 10,0 15.76,-5.68 5.76,-5.76 5.76,-15.92 0,-10.08 -5.76,-15.84 -5.76,-5.7600003 -15.76,-5.7600003 z" /><path
     id="path890"
     style="font-style:normal;font-variant:normal;font-weight:normal;font-stretch:normal;font-size:80px;font-family:'Product Sans';-inkscape-font-specification:'Product Sans';letter-spacing:1px;fill:#ffffff"
     d="m 490.80694,30.619072 q 0,12 -7.12,19.12 -8,8.48 -21.04,8.48 -12.48,0 -21.12,-8.64 -8.64,-8.64 -8.64,-21.28 0,-12.64 8.64,-21.2800003 8.64,-8.64 21.12,-8.64 6.32,0 11.92,2.23999996 5.6,2.24000004 9.2,6.32000004 l -5.28,5.2800003 q -2.64,-3.2000003 -6.88,-4.9600003 -4.16,-1.84 -8.96,-1.84 -9.36,0 -15.84,6.4800003 -6.4,6.56 -6.4,16.4 0,9.84 6.4,16.4 6.48,6.48 15.84,6.48 8.56,0 14.24,-4.8 5.68,-4.8 6.56,-13.2 h -20.8 v -6.88 h 27.76 q 0.4,2.24 0.4,4.32 z" /><path
     id="path892"
     style="font-style:normal;font-variant:normal;font-weight:normal;font-stretch:normal;font-size:80px;font-family:'Product Sans';-inkscape-font-specification:'Product Sans';letter-spacing:1px;fill:#ffffff"
     d="M 519.40569,56.939072 V -0.34092834 h 17.52 q 13.12,0 21.04,7.92000004 8,7.9200003 8,20.7200003 0,12.88 -8,20.8 -7.92,7.84 -21.04,7.84 z m 7.36,-50.2400003 V 49.899072 h 10.16 q 10,0 15.76,-5.68 5.76,-5.76 5.76,-15.92 0,-10.08 -5.76,-15.84 -5.76,-5.7600003 -15.76,-5.7600003 z" /><path
     id="path894"
     style="font-style:normal;font-variant:normal;font-weight:normal;font-stretch:normal;font-size:80px;font-family:'Product Sans';-inkscape-font-specification:'Product Sans';letter-spacing:1px;fill:#ffffff"
     d="m 590.78819,58.219072 q -8.64,0 -14.24,-5.92 -5.6,-5.92 -5.6,-14.96 0,-8.96 5.44,-14.88 5.44,-6 13.92,-6 8.72,0 13.84,5.68 5.2,5.6 5.2,15.76 l -0.08,0.8 h -30.8 q 0.16,5.76 3.84,9.28 3.68,3.52 8.8,3.52 7.04,0 11.04,-7.04 l 6.56,3.2 q -2.64,4.96 -7.36,7.76 -4.64,2.8 -10.56,2.8 z m -11.76,-25.6 h 22.48 q -0.32,-4.08 -3.36,-6.72 -2.96,-2.72 -8,-2.72 -4.16,0 -7.2,2.56 -2.96,2.56 -3.92,6.88 z" /><path
     id="path896"
     style="font-style:normal;font-variant:normal;font-weight:normal;font-stretch:normal;font-size:80px;font-family:'Product Sans';-inkscape-font-specification:'Product Sans';letter-spacing:1px;fill:#ffffff"
     d="m 635.25944,56.939072 h -7.36 l -15.84,-39.2 h 8 l 11.52,30.4 h 0.16 l 11.68,-30.4 h 7.84 z" /><path
     id="path898"
     style="font-style:normal;font-variant:normal;font-weight:normal;font-stretch:normal;font-size:80px;font-family:'Product Sans';-inkscape-font-specification:'Product Sans';letter-spacing:1px;fill:#ffffff"
     d="m 665.70319,32.379072 v 24.56 h -7.36 V -0.34092834 h 33.44 V 6.6990717 h -26.08 V 25.499072 h 23.52 v 6.88 z" /><path
     id="path900"
     style="font-style:normal;font-variant:normal;font-weight:normal;font-stretch:normal;font-size:80px;font-family:'Product Sans';-inkscape-font-specification:'Product Sans';letter-spacing:1px;fill:#ffffff"
     d="m 715.03819,58.219072 q -8.64,0 -14.24,-5.92 -5.6,-5.92 -5.6,-14.96 0,-8.96 5.44,-14.88 5.44,-6 13.92,-6 8.72,0 13.84,5.68 5.2,5.6 5.2,15.76 l -0.08,0.8 h -30.8 q 0.16,5.76 3.84,9.28 3.68,3.52 8.8,3.52 7.04,0 11.04,-7.04 l 6.56,3.2 q -2.64,4.96 -7.36,7.76 -4.64,2.8 -10.56,2.8 z m -11.76,-25.6 h 22.48 q -0.32,-4.08 -3.36,-6.72 -2.96,-2.72 -8,-2.72 -4.16,0 -7.2,2.56 -2.96,2.56 -3.92,6.88 z" /><path
     id="path902"
     style="font-style:normal;font-variant:normal;font-weight:normal;font-stretch:normal;font-size:80px;font-family:'Product Sans';-inkscape-font-specification:'Product Sans';letter-spacing:1px;fill:#ffffff"
     d="m 771.71944,46.059072 q 0,5.12 -4.48,8.64 -4.48,3.52 -11.28,3.52 -5.92,0 -10.4,-3.04 -4.48,-3.12 -6.4,-8.16 l 6.56,-2.8 q 1.44,3.52 4.16,5.52 2.8,1.92 6.08,1.92 3.52,0 5.84,-1.52 2.4,-1.52 2.4,-3.6 0,-3.76 -5.76,-5.52 l -6.72,-1.68 q -11.44,-2.88 -11.44,-11.04 0,-5.36 4.32,-8.56 4.4,-3.28 11.2,-3.28 5.2,0 9.36,2.48 4.24,2.48 5.92,6.64 l -6.56,2.72 q -1.12,-2.48 -3.68,-3.84 -2.48,-1.44 -5.6,-1.44 -2.88,0 -5.2,1.44 -2.24,1.44 -2.24,3.52 0,3.36 6.32,4.8 l 5.92,1.52 q 11.68,2.88 11.68,11.76 z" /><path
     id="path904"
     style="font-style:normal;font-variant:normal;font-weight:normal;font-stretch:normal;font-size:80px;font-family:'Product Sans';-inkscape-font-specification:'Product Sans';letter-spacing:1px;fill:#ffffff"
     d="m 794.17694,57.579072 q -4.8,0 -8,-2.96 -3.12,-2.96 -3.2,-8.24 v -21.92 h -6.88 v -6.72 h 6.88 V 5.7390717 h 7.36 V 17.739072 h 9.6 v 6.72 h -9.6 v 19.52 q 0,3.92 1.52,5.36 1.52,1.36 3.44,1.36 0.88,0 1.68,-0.16 0.88,-0.24 1.6,-0.56 l 2.32,6.56 q -2.88,1.04 -6.72,1.04 z" /></g>
<g
   style="font-size:80px"
   id="text839-3"
   aria-label="Italia 2020"><path
     id="path967"
     style="font-style:normal;font-variant:normal;font-weight:normal;font-stretch:normal;font-size:80px;font-family:'Product Sans';-inkscape-font-specification:'Product Sans';letter-spacing:1px;fill:#ffffff"
     d="m 321.17005,133.74269 h -7.36 V 76.462691 h 7.36 z" /><path
     id="path969"
     style="font-style:normal;font-variant:normal;font-weight:normal;font-stretch:normal;font-size:80px;font-family:'Product Sans';-inkscape-font-specification:'Product Sans';letter-spacing:1px;fill:#ffffff"
     d="m 347.17505,134.38269 q -4.8,0 -8,-2.96 -3.12,-2.96 -3.2,-8.24 v -21.92 h -6.88 v -6.719999 h 6.88 v -12 h 7.36 v 12 h 9.6 v 6.719999 h -9.6 v 19.52 q 0,3.92 1.52,5.36 1.52,1.36 3.44,1.36 0.88,0 1.68,-0.16 0.88,-0.24 1.6,-0.56 l 2.32,6.56 q -2.88,1.04 -6.72,1.04 z" /><path
     id="path971"
     style="font-style:normal;font-variant:normal;font-weight:normal;font-stretch:normal;font-size:80px;font-family:'Product Sans';-inkscape-font-specification:'Product Sans';letter-spacing:1px;fill:#ffffff"
     d="m 365.51505,121.74269 q 0,2.88 2.4,4.8 2.48,1.92 5.76,1.92 4.64,0 8.24,-3.44 3.68,-3.44 3.68,-8.08 -3.44,-2.72 -9.6,-2.72 -4.48,0 -7.52,2.16 -2.96,2.16 -2.96,5.36 z m 9.52,-28.479999 q 8.16,0 12.88,4.4 4.72,4.319999 4.72,11.919999 v 24.16 h -7.04 v -5.44 h -0.32 q -4.56,6.72 -12.16,6.72 -6.48,0 -10.88,-3.84 -4.32,-3.84 -4.32,-9.6 0,-6.08 4.56,-9.68 4.64,-3.6 12.32,-3.6 6.56,0 10.8,2.4 v -1.68 q 0,-3.84 -3.04,-6.48 -3.04,-2.719999 -7.12,-2.719999 -6.16,0 -9.76,5.199999 l -6.48,-4.08 q 5.36,-7.679999 15.84,-7.679999 z" /><path
     id="path973"
     style="font-style:normal;font-variant:normal;font-weight:normal;font-stretch:normal;font-size:80px;font-family:'Product Sans';-inkscape-font-specification:'Product Sans';letter-spacing:1px;fill:#ffffff"
     d="m 409.2963,76.462691 v 57.279999 h -7.36 V 76.462691 Z" /><path
     id="path975"
     style="font-style:normal;font-variant:normal;font-weight:normal;font-stretch:normal;font-size:80px;font-family:'Product Sans';-inkscape-font-specification:'Product Sans';letter-spacing:1px;fill:#ffffff"
     d="m 428.7063,81.022691 q 0,2.16 -1.52,3.68 -1.52,1.52 -3.68,1.52 -2.16,0 -3.68,-1.52 -1.52,-1.52 -1.52,-3.68 0,-2.16 1.52,-3.68 1.52,-1.52 3.68,-1.52 2.16,0 3.68,1.52 1.52,1.52 1.52,3.68 z m -1.52,13.52 v 39.199999 h -7.36 V 94.542691 Z" /><path
     id="path977"
     style="font-style:normal;font-variant:normal;font-weight:normal;font-stretch:normal;font-size:80px;font-family:'Product Sans';-inkscape-font-specification:'Product Sans';letter-spacing:1px;fill:#ffffff"
     d="m 442.7338,121.74269 q 0,2.88 2.4,4.8 2.48,1.92 5.76,1.92 4.64,0 8.24,-3.44 3.68,-3.44 3.68,-8.08 -3.44,-2.72 -9.6,-2.72 -4.48,0 -7.52,2.16 -2.96,2.16 -2.96,5.36 z m 9.52,-28.479999 q 8.16,0 12.88,4.4 4.72,4.319999 4.72,11.919999 v 24.16 h -7.04 v -5.44 h -0.32 q -4.56,6.72 -12.16,6.72 -6.48,0 -10.88,-3.84 -4.32,-3.84 -4.32,-9.6 0,-6.08 4.56,-9.68 4.64,-3.6 12.32,-3.6 6.56,0 10.8,2.4 v -1.68 q 0,-3.84 -3.04,-6.48 -3.04,-2.719999 -7.12,-2.719999 -6.16,0 -9.76,5.199999 l -6.48,-4.08 q 5.36,-7.679999 15.84,-7.679999 z" /><path
     id="path979"
     style="font-style:normal;font-variant:normal;font-weight:normal;font-stretch:normal;font-size:80px;font-family:'Product Sans';-inkscape-font-specification:'Product Sans';letter-spacing:1px;fill:#ffffff"
     d="m 531.4113,126.70269 v 7.04 h -34.88 v -7.36 l 14.16,-14.32 q 7.12,-7.28 9.84,-10.88 2.72,-3.679999 2.72,-7.679999 0,-3.6 -2.8,-6.16 -2.8,-2.56 -7.2,-2.56 -3.76,0 -6.48,2.24 -2.72,2.24 -3.52,5.44 l -6.72,-2.72 q 1.6,-5.04 6.16,-8.48 4.56,-3.52 10.72,-3.52 7.44,0 12.4,4.56 4.96,4.56 4.96,11.2 0,7.919999 -8.72,17.119999 l -16,16.08 z" /><path
     id="path981"
     style="font-style:normal;font-variant:normal;font-weight:normal;font-stretch:normal;font-size:80px;font-family:'Product Sans';-inkscape-font-specification:'Product Sans';letter-spacing:1px;fill:#ffffff"
     d="m 539.4138,106.38269 q 0,-12.479999 6.16,-20.559999 6.16,-8.08 15.84,-8.08 9.68,0 15.84,8.16 6.16,8.08 6.16,20.479999 0,12.32 -6.16,20.56 -6.16,8.08 -15.84,8.08 -9.68,0 -15.84,-8.08 -6.16,-8.24 -6.16,-20.56 z m 36.48,0 q 0,-9.439999 -4,-15.519999 -3.92,-6.08 -10.48,-6.08 -6.56,0 -10.48,6.08 -4,6.08 -4,15.519999 0,9.44 4,15.6 3.92,6 10.48,6 6.56,0 10.48,-6.08 4,-6.16 4,-15.52 z" /><path
     id="path983"
     style="font-style:normal;font-variant:normal;font-weight:normal;font-stretch:normal;font-size:80px;font-family:'Product Sans';-inkscape-font-specification:'Product Sans';letter-spacing:1px;fill:#ffffff"
     d="m 625.2863,126.70269 v 7.04 h -34.88 v -7.36 l 14.16,-14.32 q 7.12,-7.28 9.84,-10.88 2.72,-3.679999 2.72,-7.679999 0,-3.6 -2.8,-6.16 -2.8,-2.56 -7.2,-2.56 -3.76,0 -6.48,2.24 -2.72,2.24 -3.52,5.44 l -6.72,-2.72 q 1.6,-5.04 6.16,-8.48 4.56,-3.52 10.72,-3.52 7.44,0 12.4,4.56 4.96,4.56 4.96,11.2 0,7.919999 -8.72,17.119999 l -16,16.08 z" /><path
     id="path985"
     style="font-style:normal;font-variant:normal;font-weight:normal;font-stretch:normal;font-size:80px;font-family:'Product Sans';-inkscape-font-specification:'Product Sans';letter-spacing:1px;fill:#ffffff"
     d="m 633.2888,106.38269 q 0,-12.479999 6.16,-20.559999 6.16,-8.08 15.84,-8.08 9.68,0 15.84,8.16 6.16,8.08 6.16,20.479999 0,12.32 -6.16,20.56 -6.16,8.08 -15.84,8.08 -9.68,0 -15.84,-8.08 -6.16,-8.24 -6.16,-20.56 z m 36.48,0 q 0,-9.439999 -4,-15.519999 -3.92,-6.08 -10.48,-6.08 -6.56,0 -10.48,6.08 -4,6.08 -4,15.519999 0,9.44 4,15.6 3.92,6 10.48,6 6.56,0 10.48,-6.08 4,-6.16 4,-15.52 z" /></g></g>
<g
   transform="translate(-1.632927,1.6209283)"
   id="Livello_2">
	<g
   id="g850">
		<path
   id="path842"
   d="M 62.9,64.2 104.7,40.1 C 114.5,34.4 117.9,21.8 112.2,12 106.6,2.1 94,-1.2 84.2,4.5 L 11.9,46.2 Z"
   class="st4" />
		<path
   id="path844"
   d="m 94.5,126.3 c 7.1,0 14,-3.7 17.8,-10.3 5.7,-9.8 2.3,-22.4 -7.5,-28.1 L 32.5,46.2 C 22.7,40.5 10.1,43.9 4.4,53.7 -1.3,63.5 2.1,76.1 11.9,81.8 l 72.3,41.7 c 3.2,1.9 6.8,2.8 10.3,2.8"
   class="st5" />
		<path
   id="path846"
   d="m 166.4,126.3 c 3.5,0 7,-0.9 10.3,-2.8 L 249,81.8 198.6,63.4 156.1,87.9 c -9.8,5.7 -13.2,18.3 -7.5,28.1 3.7,6.6 10.6,10.3 17.8,10.3"
   class="st6" />
		<path
   id="path848"
   d="m 238.6,84.6 c 7.1,0 14,-3.7 17.8,-10.3 5.7,-9.8 2.3,-22.4 -7.5,-28.1 L 176.6,4.4 c -9.8,-5.7 -22.4,-2.3 -28.1,7.5 -5.7,9.8 -2.3,22.4 7.5,28.1 l 72.3,41.7 c 3.3,2 6.8,2.9 10.3,2.9"
   class="st7" />
	</g>
</g>
</svg>
