<?xml version="1.0" encoding="utf-8"?>
<!-- Generator: Adobe Illustrator 22.0.0, SVG Export Plug-In . SVG Version: 6.00 Build 0)  -->
<svg version="1.1" id="Livello_2" xmlns="http://www.w3.org/2000/svg" xmlns:xlink="http://www.w3.org/1999/xlink" x="0px" y="0px"
	 viewBox="0 0 1089.3 200" style="enable-background:new 0 0 1089.3 200;" xml:space="preserve">
<style type="text/css">
	.st0{fill:#676C72;}
	.st1{fill:#EA4335;}
	.st2{fill:#4285F4;}
	.st3{fill:#FBBC04;}
	.st4{fill:#0F9D58;}
	.st5{font-family:'ProductSans-Regular';}
	.st6{font-size:127.8683px;}
</style>
<g>
	<g>
		<path class="st0" d="M335.3,141c-7.1-4.1-12.7-9.7-16.9-16.9c-4.2-7.2-6.3-15.1-6.3-23.8c0-8.7,2.1-16.6,6.3-23.8
			c4.2-7.2,9.8-12.8,16.9-16.9c7.1-4.1,14.8-6.1,23.3-6.1c6.6,0,12.8,1.2,18.6,3.5c5.8,2.3,10.6,5.6,14.3,9.9l-7.6,7.6
			c-2.8-3.5-6.5-6.2-10.9-8.1c-4.4-1.9-9.2-2.8-14.3-2.8c-6.3,0-12.2,1.5-17.7,4.6c-5.5,3-9.8,7.3-13.1,12.9
			c-3.3,5.5-4.9,11.9-4.9,19.2c0,7.3,1.6,13.7,4.9,19.2c3.3,5.5,7.7,9.8,13.2,12.9c5.5,3,11.4,4.6,17.6,4.6c6,0,11-0.9,15.1-2.8
			c4-1.9,7.5-4.4,10.4-7.4c2.2-2.3,3.9-5.1,5.3-8.4c1.3-3.3,2.2-6.9,2.5-10.9h-33.2v-9.9h43c0.4,2.3,0.6,4.5,0.6,6.5
			c0,5.5-0.9,10.9-2.6,16.1c-1.8,5.2-4.5,9.8-8.4,13.7c-8.3,8.9-19.2,13.4-32.9,13.4C350.2,147.1,342.4,145.1,335.3,141"/>
		<path class="st0" d="M415.8,55.6h27c9.2,0,17.2,1.9,24,5.7c6.8,3.8,12.1,9.1,15.8,15.8c3.7,6.8,5.5,14.5,5.5,23.3
			c0,8.8-1.8,16.5-5.5,23.3c-3.7,6.8-8.9,12-15.8,15.8c-6.8,3.8-14.8,5.7-24,5.7h-27V55.6z M442.8,135c10.6,0,19-3,25.2-9.1
			c6.2-6.1,9.3-14.6,9.3-25.5c0-10.9-3.1-19.4-9.3-25.5c-6.2-6.1-14.6-9.1-25.2-9.1h-16.5V135H442.8z"/>
		<path class="st0" d="M520,141c-7.1-4.1-12.7-9.7-16.9-16.9c-4.2-7.2-6.3-15.1-6.3-23.8c0-8.7,2.1-16.6,6.3-23.8
			c4.2-7.2,9.8-12.8,16.9-16.9c7.1-4.1,14.8-6.1,23.3-6.1c6.6,0,12.8,1.2,18.6,3.5c5.8,2.3,10.6,5.6,14.3,9.9l-7.6,7.6
			c-2.8-3.5-6.5-6.2-10.9-8.1c-4.4-1.9-9.2-2.8-14.3-2.8c-6.3,0-12.2,1.5-17.7,4.6c-5.5,3-9.8,7.3-13.1,12.9
			c-3.3,5.5-4.9,11.9-4.9,19.2c0,7.3,1.6,13.7,4.9,19.2c3.3,5.5,7.7,9.8,13.2,12.9c5.5,3,11.4,4.6,17.6,4.6c6,0,11-0.9,15.1-2.8
			c4-1.9,7.5-4.4,10.4-7.4c2.2-2.3,3.9-5.1,5.3-8.4c1.3-3.3,2.2-6.9,2.5-10.9h-33.2v-9.9h43c0.4,2.3,0.6,4.5,0.6,6.5
			c0,5.5-0.9,10.9-2.6,16.1c-1.8,5.2-4.5,9.8-8.4,13.7c-8.3,8.9-19.2,13.4-32.9,13.4C534.8,147.1,527.1,145.1,520,141"/>
	</g>
	<g>
		<path class="st1" d="M61.3,100.5l41.2-23.8c9.7-5.6,13-18,7.4-27.7c-5.6-9.7-18-13-27.7-7.4L11,82.7L61.3,100.5z"/>
		<path class="st2" d="M92.4,161.7c7,0,13.8-3.6,17.6-10.1c5.6-9.7,2.3-22.1-7.4-27.7L31.3,82.7c-9.7-5.6-22.1-2.3-27.7,7.4
			c-5.6,9.7-2.3,22.1,7.4,27.7l71.2,41.1C85.5,160.8,89,161.7,92.4,161.7"/>
		<path class="st3" d="M163.3,161.7c3.4,0,6.9-0.9,10.1-2.7l71.2-41.1L195,99.6l-41.9,24.2c-9.7,5.6-13,18-7.4,27.7
			C149.4,158,156.3,161.7,163.3,161.7"/>
		<path class="st4" d="M234.5,120.5c7,0,13.8-3.6,17.6-10.1c5.6-9.7,2.3-22.1-7.4-27.7l-71.2-41.1c-9.7-5.6-22.1-2.3-27.7,7.4
			c-5.6,9.7-2.3,22.1,7.4,27.7l71.2,41.1C227.5,119.6,231,120.5,234.5,120.5"/>
	</g>
</g>
<text transform="matrix(1 0 0 1 653.2744 145.2017)" class="st0 st5 st6">Italia</text>
</svg>
